<svg width="154" height="154" viewBox="0 0 154 154" fill="none" xmlns="http://www.w3.org/2000/svg">
<rect width="153.6" height="153.6" rx="36.836" fill="black"/>
<path d="M94.8006 29.006L99.9974 34.2055C101.807 36.0161 101.807 38.9408 99.9974 40.7514L70.1623 70.6024C68.3527 72.4129 65.4295 72.4129 63.6199 70.6024L58.4231 65.4028C56.6135 63.5923 56.6135 60.6675 58.4231 58.857L88.2582 29.006C90.0214 27.1954 92.991 27.1954 94.8006 29.006Z" fill="white"/>
<path d="M89.8817 82.9978L95.0785 88.1974C96.8881 90.0079 96.8881 92.9327 95.0785 94.7432L65.2433 124.594C63.4337 126.405 60.5106 126.405 58.701 124.594L53.5042 119.395C51.6946 117.584 51.6946 114.659 53.5042 112.849L83.3393 82.9978C85.1489 81.1873 88.0721 81.1873 89.8817 82.9978Z" fill="white"/>
<path d="M119.346 53.6574L124.543 58.8569C126.353 60.6675 126.353 63.5922 124.543 65.4028L119.346 70.6023C117.537 72.4129 114.614 72.4129 112.804 70.6023L107.607 65.4028C105.798 63.5922 105.798 60.6675 107.607 58.8569L112.804 53.6574C114.614 51.8468 117.537 51.8468 119.346 53.6574Z" fill="white"/>
<path d="M40.7902 83.0442L45.987 88.2437C47.7966 90.0543 47.7966 92.9791 45.987 94.7896L40.7902 99.9892C38.9806 101.8 36.0574 101.8 34.2478 99.9892L29.051 94.7896C27.2414 92.9791 27.2414 90.0543 29.051 88.2437L34.2478 83.0442C36.011 81.2336 38.9806 81.2336 40.7902 83.0442Z" fill="white"/>
<path d="M65.383 29.0059L70.5798 34.2054C72.3894 36.016 72.3894 38.9407 70.5798 40.7513L65.383 45.9508C63.5734 47.7614 60.6502 47.7614 58.8406 45.9508L53.6438 40.7513C51.8342 38.9407 51.8342 36.016 53.6438 34.2054L58.8406 29.0059C60.6502 27.1953 63.5734 27.1953 65.383 29.0059Z" fill="#FFAD00"/>
<path d="M94.8005 107.649L99.9973 112.849C101.807 114.659 101.807 117.584 99.9973 119.395L94.8005 124.594C92.9909 126.405 90.0677 126.405 88.2581 124.594L83.0613 119.395C81.2517 117.584 81.2517 114.659 83.0613 112.849L88.2581 107.649C90.0213 105.839 92.9909 105.839 94.8005 107.649Z" fill="#FFAD00"/>
<path d="M70.5799 90.0541L65.3831 95.2537C63.5735 97.0642 60.6504 97.0642 58.8408 95.2537L29.0056 65.4027C27.196 63.5921 27.196 60.6673 29.0056 58.8568L34.2024 53.6572C36.012 51.8467 38.9352 51.8467 40.7448 53.6572L70.5799 83.5082C72.3895 85.3188 72.3895 88.2435 70.5799 90.0541Z" fill="#FFAD00"/>
<path d="M124.589 94.7898L119.439 99.9894C117.629 101.8 114.706 101.8 112.896 99.9894L83.0613 70.1384C81.2517 68.3278 81.2517 65.4031 83.0613 63.5925L88.2581 58.393C90.0677 56.5824 92.9909 56.5824 94.8005 58.393L124.636 88.2439C126.399 90.0545 126.399 92.9792 124.589 94.7898Z" fill="#FFAD00"/>
</svg>
