<svg width="653" height="154" viewBox="0 0 653 154" fill="none" xmlns="http://www.w3.org/2000/svg">
<rect width="153.6" height="153.6" rx="36.836" fill="black"/>
<path d="M94.8006 29.006L99.9974 34.2055C101.807 36.0161 101.807 38.9408 99.9974 40.7514L70.1623 70.6024C68.3527 72.4129 65.4295 72.4129 63.6199 70.6024L58.4231 65.4028C56.6135 63.5923 56.6135 60.6675 58.4231 58.857L88.2582 29.006C90.0214 27.1954 92.991 27.1954 94.8006 29.006Z" fill="white"/>
<path d="M89.8817 82.9978L95.0785 88.1974C96.8881 90.0079 96.8881 92.9327 95.0785 94.7432L65.2433 124.594C63.4337 126.405 60.5106 126.405 58.701 124.594L53.5042 119.395C51.6946 117.584 51.6946 114.659 53.5042 112.849L83.3393 82.9978C85.1489 81.1873 88.0721 81.1873 89.8817 82.9978Z" fill="white"/>
<path d="M119.346 53.6574L124.543 58.8569C126.353 60.6675 126.353 63.5922 124.543 65.4028L119.346 70.6023C117.537 72.4129 114.614 72.4129 112.804 70.6023L107.607 65.4028C105.798 63.5922 105.798 60.6675 107.607 58.8569L112.804 53.6574C114.614 51.8468 117.537 51.8468 119.346 53.6574Z" fill="white"/>
<path d="M40.7902 83.0442L45.987 88.2437C47.7966 90.0543 47.7966 92.9791 45.987 94.7896L40.7902 99.9892C38.9806 101.8 36.0574 101.8 34.2478 99.9892L29.051 94.7896C27.2414 92.9791 27.2414 90.0543 29.051 88.2437L34.2478 83.0442C36.011 81.2336 38.9806 81.2336 40.7902 83.0442Z" fill="white"/>
<path d="M65.383 29.0059L70.5798 34.2054C72.3894 36.016 72.3894 38.9407 70.5798 40.7513L65.383 45.9508C63.5734 47.7614 60.6502 47.7614 58.8406 45.9508L53.6438 40.7513C51.8342 38.9407 51.8342 36.016 53.6438 34.2054L58.8406 29.0059C60.6502 27.1953 63.5734 27.1953 65.383 29.0059Z" fill="#FFAD00"/>
<path d="M94.8005 107.649L99.9973 112.849C101.807 114.659 101.807 117.584 99.9973 119.395L94.8005 124.594C92.9909 126.405 90.0677 126.405 88.2581 124.594L83.0613 119.395C81.2517 117.584 81.2517 114.659 83.0613 112.849L88.2581 107.649C90.0213 105.839 92.9909 105.839 94.8005 107.649Z" fill="#FFAD00"/>
<path d="M70.5799 90.0541L65.3831 95.2537C63.5735 97.0642 60.6504 97.0642 58.8408 95.2537L29.0056 65.4027C27.196 63.5921 27.196 60.6673 29.0056 58.8568L34.2024 53.6572C36.012 51.8467 38.9352 51.8467 40.7448 53.6572L70.5799 83.5082C72.3895 85.3188 72.3895 88.2435 70.5799 90.0541Z" fill="#FFAD00"/>
<path d="M124.589 94.7898L119.439 99.9894C117.629 101.8 114.706 101.8 112.896 99.9894L83.0613 70.1384C81.2517 68.3278 81.2517 65.4031 83.0613 63.5925L88.2581 58.393C90.0677 56.5824 92.9909 56.5824 94.8005 58.393L124.636 88.2439C126.399 90.0545 126.399 92.9792 124.589 94.7898Z" fill="#FFAD00"/>
<path d="M279.944 52.9682C280.863 52.9682 281.723 53.148 282.522 53.5078C283.361 53.8675 284.081 54.3671 284.68 55.0066C285.32 55.6062 285.819 56.3256 286.179 57.165C286.539 57.9644 286.719 58.8437 286.719 59.803C286.719 60.6823 286.519 61.6216 286.119 62.6208L263.696 108.726V108.666C263.257 109.545 262.817 110.344 262.377 111.064C262.018 111.663 261.638 112.203 261.238 112.683C260.838 113.162 260.479 113.402 260.159 113.402C259.919 113.402 259.639 113.242 259.32 112.923C259.04 112.603 258.76 112.223 258.48 111.783C258.2 111.384 257.921 110.964 257.641 110.524C257.401 110.045 257.221 109.645 257.101 109.325L245.59 82.8854C245.35 82.4058 245.05 81.9461 244.691 81.5065C244.371 81.0268 244.031 80.787 243.672 80.787C243.272 80.787 242.892 81.0468 242.532 81.5664C242.173 82.086 241.873 82.5856 241.633 83.0653L230.422 108.726V108.666C230.062 109.545 229.682 110.344 229.282 111.064C228.963 111.663 228.583 112.203 228.143 112.683C227.744 113.162 227.384 113.402 227.064 113.402C226.824 113.402 226.565 113.282 226.285 113.042C226.045 112.803 225.785 112.503 225.505 112.143C225.226 111.783 224.966 111.404 224.726 111.004C224.486 110.564 224.286 110.165 224.126 109.805L201.164 62.7407C200.724 61.8614 200.504 60.8822 200.504 59.803C200.504 58.8437 200.684 57.9644 201.044 57.165C201.404 56.3256 201.883 55.6062 202.483 55.0066C203.122 54.3671 203.842 53.8675 204.641 53.5078C205.481 53.148 206.38 52.9682 207.339 52.9682C208.698 52.9682 209.917 53.3479 210.996 54.1073C212.116 54.8268 212.955 55.766 213.514 56.9252L225.865 83.8447C225.985 84.1644 226.125 84.4442 226.285 84.684C226.565 85.2036 226.824 85.4634 227.064 85.4634C227.264 85.4634 227.504 85.2036 227.784 84.684C227.944 84.4442 228.083 84.1644 228.203 83.8447L240.194 55.7261C240.274 55.5662 240.394 55.3264 240.554 55.0066C240.754 54.6869 240.994 54.3871 241.273 54.1073C241.593 53.7876 241.933 53.5278 242.293 53.3279C242.692 53.0881 243.132 52.9682 243.612 52.9682C244.171 52.9682 244.671 53.1281 245.11 53.4478C245.55 53.7276 245.93 54.0474 246.25 54.4071C246.609 54.8467 246.909 55.3264 247.149 55.846L259.32 84.0245C259.4 84.2244 259.539 84.5242 259.739 84.9239C259.979 85.2836 260.199 85.4634 260.399 85.4634C260.639 85.4634 260.898 85.2036 261.178 84.684C261.338 84.4442 261.478 84.1644 261.598 83.8447L273.709 57.2249C274.188 55.9459 274.988 54.9267 276.107 54.1673C277.266 53.3679 278.545 52.9682 279.944 52.9682Z" fill="black"/>
<path d="M345.834 104.109C343.915 106.188 341.797 107.966 339.479 109.445C337.24 110.764 334.822 111.763 332.224 112.443C329.666 113.082 326.848 113.402 323.771 113.402C315.017 113.402 308.003 110.584 302.727 104.949C297.451 99.3928 294.813 91.9185 294.813 82.5257C294.813 73.2927 297.371 65.8184 302.487 60.1027C307.603 54.467 314.458 51.6492 323.051 51.6492C327.408 51.6492 331.265 52.3287 334.622 53.6876C337.98 55.0066 340.918 57.0651 343.436 59.8629C348.432 65.2988 350.93 72.8131 350.93 82.4058C350.85 83.3251 350.47 84.1045 349.791 84.744C349.151 85.3835 348.372 85.7033 347.453 85.7033H312.079C311.92 85.7033 311.66 85.7232 311.3 85.7632C310.94 85.8032 310.581 85.9231 310.221 86.1229C309.901 86.2828 309.641 86.5626 309.441 86.9623C309.242 87.322 309.202 87.8416 309.322 88.5211C309.961 91.9985 311.38 94.8563 313.578 97.0946C316.376 99.8925 319.933 101.291 324.25 101.291C327.608 101.291 330.406 100.492 332.644 98.8932C333.243 98.4536 333.863 97.894 334.502 97.2145C335.182 96.495 335.901 95.6757 336.661 94.7564C337.26 93.917 338.02 93.2575 338.939 92.7779C339.898 92.2982 340.898 92.0584 341.937 92.0584C342.856 92.0584 343.715 92.2383 344.515 92.598C345.314 92.9178 345.994 93.3774 346.553 93.977C347.153 94.5765 347.612 95.276 347.932 96.0754C348.292 96.8747 348.472 97.7141 348.472 98.5934C348.472 100.152 347.992 101.531 347.033 102.73C346.993 102.81 346.953 102.87 346.913 102.91C346.873 102.91 346.833 102.93 346.793 102.97L345.834 104.109ZM310.76 71.9737C310.681 72.1736 310.621 72.4334 310.581 72.7531C310.541 73.0329 310.581 73.3127 310.701 73.5925C310.82 73.8723 311.04 74.1321 311.36 74.3719C311.72 74.5717 312.259 74.6717 312.979 74.6717H334.323C334.882 74.6317 335.302 74.5118 335.582 74.3119C335.861 74.0721 336.041 73.8323 336.121 73.5925C336.241 73.3127 336.281 73.0529 336.241 72.8131C336.201 72.5333 336.161 72.2935 336.121 72.0936C333.883 66.5778 329.626 63.8199 323.351 63.8199C321.592 63.8199 320.053 64.0797 318.734 64.5993C317.296 65.079 315.977 65.7984 314.777 66.7577C314.178 67.2373 313.618 67.7569 313.099 68.3165C312.619 68.8361 312.179 69.4356 311.78 70.1151C311.58 70.4349 311.4 70.7546 311.24 71.0744C311.08 71.3542 310.92 71.6539 310.76 71.9737Z" fill="black"/>
<path d="M412.083 111.604C411.164 111.604 410.385 111.324 409.745 110.764C409.106 110.165 408.746 109.405 408.666 108.486V105.488C403.11 110.684 397.175 113.282 390.86 113.282C382.786 113.282 376.131 110.364 370.895 104.529C365.619 98.6134 362.981 91.1991 362.981 82.2859C362.981 73.5325 365.619 66.2381 370.895 60.4025C376.051 54.567 382.586 51.6492 390.5 51.6492C397.215 51.6492 403.27 54.4471 408.666 60.0428C408.666 59.1235 408.846 58.2641 409.206 57.4648C409.565 56.6254 410.045 55.9059 410.644 55.3064C411.244 54.6669 411.943 54.1673 412.743 53.8075C413.582 53.4478 414.462 53.2679 415.381 53.2679C416.34 53.2679 417.239 53.4478 418.079 53.8075C418.918 54.1673 419.638 54.6669 420.237 55.3064C420.877 55.9059 421.376 56.6254 421.736 57.4648C422.096 58.2641 422.276 59.1235 422.276 60.0428C422.276 60.1227 422.256 60.1827 422.216 60.2227C422.216 60.2626 422.216 60.3026 422.216 60.3426H422.276L422.216 108.246C422.216 109.165 421.876 109.965 421.196 110.644C420.557 111.284 419.758 111.604 418.798 111.604H412.083ZM405.009 96.0754C408.086 92.4381 409.625 87.9416 409.625 82.5856C409.625 77.1498 408.086 72.6532 405.009 69.0959C401.931 65.6185 397.914 63.8799 392.958 63.8799C388.401 63.8799 384.564 65.6185 381.447 69.0959C378.329 72.6932 376.77 77.0898 376.77 82.2859C376.77 87.8017 378.289 92.3182 381.327 95.8355C384.444 99.4328 388.301 101.231 392.898 101.231C397.854 101.231 401.891 99.5127 405.009 96.0754Z" fill="black"/>
<path d="M482.17 53.0881C483.129 53.0881 484.009 53.2679 484.808 53.6277C485.647 53.9874 486.367 54.467 486.966 55.0666C487.566 55.6661 488.046 56.3856 488.405 57.2249C488.765 58.0243 488.945 58.9037 488.945 59.8629C488.945 61.142 488.645 62.2611 488.046 63.2204L466.042 108.426L465.982 108.366C465.583 109.245 465.163 110.045 464.723 110.764C464.364 111.364 463.984 111.903 463.584 112.383C463.224 112.863 462.885 113.102 462.565 113.102C462.365 113.102 462.145 112.982 461.905 112.743C461.666 112.503 461.406 112.203 461.126 111.843C460.886 111.484 460.626 111.104 460.347 110.704C460.107 110.265 459.907 109.865 459.747 109.505L437.324 63.0405C436.765 62.0413 436.485 60.9621 436.485 59.803C436.485 58.8837 436.665 58.0243 437.024 57.2249C437.384 56.3856 437.864 55.6661 438.463 55.0666C439.103 54.467 439.822 53.9874 440.622 53.6277C441.461 53.2679 442.36 53.0881 443.32 53.0881C444.679 53.0881 445.898 53.4678 446.977 54.2272C448.096 54.9467 448.915 55.9059 449.435 57.105L449.495 57.165L462.025 84.2044C462.105 84.4042 462.205 84.6041 462.325 84.8039C462.485 84.9638 462.625 85.0438 462.745 85.0438C462.905 85.0438 463.105 84.8239 463.344 84.3843C463.464 84.2244 463.584 84.0045 463.704 83.7248V83.7847L475.935 57.165C476.454 55.9659 477.274 54.9866 478.393 54.2272C479.512 53.4678 480.771 53.0881 482.17 53.0881Z" fill="black"/>
<path d="M548.12 104.109C546.201 106.188 544.083 107.966 541.765 109.445C539.526 110.764 537.108 111.763 534.51 112.443C531.952 113.082 529.134 113.402 526.057 113.402C517.303 113.402 510.289 110.584 505.013 104.949C499.737 99.3928 497.099 91.9185 497.099 82.5257C497.099 73.2927 499.657 65.8184 504.773 60.1027C509.889 54.467 516.744 51.6492 525.337 51.6492C529.694 51.6492 533.551 52.3287 536.908 53.6876C540.266 55.0066 543.204 57.0651 545.722 59.8629C550.718 65.2988 553.216 72.8131 553.216 82.4058C553.136 83.3251 552.756 84.1045 552.077 84.744C551.437 85.3835 550.658 85.7033 549.739 85.7033H514.366C514.206 85.7033 513.946 85.7232 513.586 85.7632C513.226 85.8032 512.867 85.9231 512.507 86.1229C512.187 86.2828 511.927 86.5626 511.728 86.9623C511.528 87.322 511.488 87.8416 511.608 88.5211C512.247 91.9985 513.666 94.8563 515.864 97.0946C518.662 99.8925 522.22 101.291 526.536 101.291C529.894 101.291 532.692 100.492 534.93 98.8932C535.529 98.4536 536.149 97.894 536.788 97.2145C537.468 96.495 538.187 95.6757 538.947 94.7564C539.546 93.917 540.306 93.2575 541.225 92.7779C542.184 92.2982 543.184 92.0584 544.223 92.0584C545.142 92.0584 546.001 92.2383 546.801 92.598C547.6 92.9178 548.28 93.3774 548.839 93.977C549.439 94.5765 549.898 95.276 550.218 96.0754C550.578 96.8747 550.758 97.7141 550.758 98.5934C550.758 100.152 550.278 101.531 549.319 102.73C549.279 102.81 549.239 102.87 549.199 102.91C549.159 102.91 549.119 102.93 549.079 102.97L548.12 104.109ZM513.047 71.9737C512.967 72.1736 512.907 72.4334 512.867 72.7531C512.827 73.0329 512.867 73.3127 512.987 73.5925C513.106 73.8723 513.326 74.1321 513.646 74.3719C514.006 74.5717 514.545 74.6717 515.265 74.6717H536.609C537.168 74.6317 537.588 74.5118 537.868 74.3119C538.147 74.0721 538.327 73.8323 538.407 73.5925C538.527 73.3127 538.567 73.0529 538.527 72.8131C538.487 72.5333 538.447 72.2935 538.407 72.0936C536.169 66.5778 531.912 63.8199 525.637 63.8199C523.878 63.8199 522.339 64.0797 521.02 64.5993C519.582 65.079 518.263 65.7984 517.063 66.7577C516.464 67.2373 515.904 67.7569 515.385 68.3165C514.905 68.8361 514.465 69.4356 514.066 70.1151C513.866 70.4349 513.686 70.7546 513.526 71.0744C513.366 71.3542 513.206 71.6539 513.047 71.9737Z" fill="black"/>
<path d="M581.514 104.949C581.514 105.908 581.335 106.807 580.975 107.647C580.615 108.446 580.135 109.145 579.536 109.745C578.936 110.344 578.217 110.824 577.378 111.184C576.578 111.504 575.699 111.663 574.74 111.663C573.82 111.663 572.941 111.484 572.102 111.124C571.302 110.764 570.603 110.285 570.003 109.685C569.404 109.085 568.924 108.386 568.564 107.587C568.205 106.747 568.025 105.848 568.025 104.889V16.9956C568.025 16.0763 568.205 15.1969 568.564 14.3576C568.924 13.5182 569.404 12.7988 570.003 12.1992C570.603 11.5597 571.302 11.0601 572.102 10.7004C572.941 10.3406 573.82 10.1608 574.74 10.1608C575.659 10.1608 576.518 10.3406 577.318 10.7004C578.157 11.0601 578.876 11.5597 579.476 12.1992C580.115 12.7988 580.615 13.5182 580.975 14.3576C581.335 15.157 581.514 16.0163 581.514 16.9356V104.949Z" fill="black"/>
<path d="M652.8 60.1027C652.8 60.8222 652.68 61.5217 652.44 62.2011C652.241 62.8407 651.961 63.4402 651.601 63.9998L612.93 138.943C612.451 140.222 611.631 141.281 610.472 142.12C609.353 143 608.034 143.439 606.515 143.439C605.556 143.439 604.657 143.259 603.817 142.9C603.018 142.54 602.299 142.04 601.659 141.401C601.06 140.801 600.58 140.082 600.22 139.242C599.86 138.443 599.681 137.564 599.681 136.605C599.681 135.046 600.12 133.707 601 132.588L617.067 102.431C617.227 102.191 617.367 101.911 617.487 101.591C617.607 101.271 617.667 101.032 617.667 100.872C617.667 100.752 617.607 100.572 617.487 100.332C617.407 100.092 617.327 99.8725 617.247 99.6726C617.087 99.4328 616.947 99.153 616.828 98.8333L597.642 64.0597C597.242 63.5002 596.923 62.9006 596.683 62.2611C596.483 61.5816 596.383 60.8622 596.383 60.1027C596.383 59.1435 596.563 58.2641 596.923 57.4648C597.282 56.6254 597.762 55.9059 598.362 55.3064C599.001 54.6669 599.721 54.1673 600.52 53.8075C601.359 53.4478 602.259 53.2679 603.218 53.2679C604.617 53.2679 605.856 53.6477 606.935 54.4071C608.054 55.1665 608.894 56.1458 609.453 57.3448V57.2849L623.902 84.4442C624.022 84.6441 624.202 84.8839 624.442 85.1637C624.682 85.4435 624.941 85.5833 625.221 85.5833C625.541 85.5833 625.841 85.3635 626.12 84.9239C626.28 84.764 626.4 84.5441 626.48 84.2644L639.67 57.7046C640.19 56.4255 641.009 55.3863 642.128 54.5869C643.247 53.7476 644.546 53.3279 646.025 53.3279C646.945 53.3279 647.804 53.5078 648.603 53.8675C649.443 54.2272 650.162 54.7268 650.762 55.3664C651.401 55.9659 651.901 56.6853 652.261 57.5247C652.62 58.3241 652.8 59.1834 652.8 60.1027Z" fill="black"/>
</svg>
