<svg width="851" height="200" viewBox="0 0 851 200" fill="none" xmlns="http://www.w3.org/2000/svg">
<path d="M136.622 2.76269L147.194 13.3412C150.876 17.0248 150.876 22.9752 147.194 26.6588L86.4948 87.3908C82.8131 91.0744 76.8659 91.0744 73.1843 87.3908L62.6114 76.8123C58.9298 73.1287 58.9298 67.1783 62.6114 63.4947L123.311 2.76269C126.898 -0.920897 132.94 -0.920897 136.622 2.76269Z" fill="white" style="fill:white;fill-opacity:1;"/>
<path d="M126.615 112.609L137.188 123.188C140.87 126.871 140.87 132.822 137.188 136.505L76.4882 197.237C72.8066 200.921 66.8593 200.921 63.1777 197.237L52.6048 186.659C48.9232 182.975 48.9232 177.025 52.6048 173.341L113.305 112.609C116.986 108.926 122.933 108.926 126.615 112.609Z" fill="white" style="fill:white;fill-opacity:1;"/>
<path d="M186.56 52.9163L197.132 63.4948C200.814 67.1784 200.814 73.1288 197.132 76.8124L186.56 87.3909C182.878 91.0745 176.931 91.0745 173.249 87.3909L162.676 76.8124C158.995 73.1288 158.995 67.1784 162.676 63.4948L173.249 52.9163C176.931 49.2327 182.878 49.2327 186.56 52.9163Z" fill="white" style="fill:white;fill-opacity:1;"/>
<path d="M26.739 112.704L37.3119 123.282C40.9935 126.966 40.9935 132.916 37.3119 136.6L26.739 147.178C23.0574 150.862 17.1101 150.862 13.4285 147.178L2.85558 136.6C-0.826047 132.916 -0.826047 126.966 2.85558 123.282L13.4285 112.704C17.0157 109.02 23.0574 109.02 26.739 112.704Z" fill="white" style="fill:white;fill-opacity:1;"/>
<path d="M76.7714 2.76269L87.3443 13.3412C91.026 17.0248 91.026 22.9752 87.3443 26.6588L76.7714 37.2373C73.0898 40.9209 67.1425 40.9209 63.4609 37.2373L52.888 26.6588C49.2064 22.9752 49.2064 17.0248 52.888 13.3412L63.4609 2.76269C67.1425 -0.920897 73.0898 -0.920897 76.7714 2.76269Z" fill="#FFAD00" style="fill:#FFAD00;fill:color(display-p3 1.0000 0.6784 0.0000);fill-opacity:1;"/>
<path d="M136.622 162.763L147.194 173.341C150.876 177.025 150.876 182.975 147.194 186.659L136.622 197.237C132.94 200.921 126.993 200.921 123.311 197.237L112.738 186.659C109.057 182.975 109.057 177.025 112.738 173.341L123.311 162.763C126.898 159.079 132.94 159.079 136.622 162.763Z" fill="#FFAD00" style="fill:#FFAD00;fill:color(display-p3 1.0000 0.6784 0.0000);fill-opacity:1;"/>
<path d="M87.3443 126.966L76.7714 137.544C73.0898 141.228 67.1426 141.228 63.4609 137.544L2.76122 76.8124C-0.920408 73.1288 -0.920408 67.1784 2.76122 63.4948L13.3341 52.9163C17.0157 49.2327 22.963 49.2327 26.6446 52.9163L87.3443 113.648C91.026 117.332 91.026 123.282 87.3443 126.966Z" fill="#FFAD00" style="fill:#FFAD00;fill:color(display-p3 1.0000 0.6784 0.0000);fill-opacity:1;"/>
<path d="M197.227 136.6L186.748 147.178C183.067 150.862 177.12 150.862 173.438 147.178L112.738 86.4463C109.057 82.7627 109.057 76.8123 112.738 73.1287L123.311 62.5502C126.993 58.8666 132.94 58.8666 136.622 62.5502L197.321 123.282C200.909 126.966 200.909 132.916 197.227 136.6Z" fill="#FFAD00" style="fill:#FFAD00;fill:color(display-p3 1.0000 0.6784 0.0000);fill-opacity:1;"/>
<path d="M358.281 69.0938C359.479 69.0938 360.599 69.3281 361.641 69.7969C362.734 70.2656 363.672 70.9167 364.453 71.75C365.286 72.5312 365.938 73.4688 366.406 74.5625C366.875 75.6042 367.109 76.75 367.109 78C367.109 79.1458 366.849 80.3698 366.328 81.6719L337.109 141.75V141.672C336.536 142.818 335.964 143.859 335.391 144.797C334.922 145.578 334.427 146.281 333.906 146.906C333.385 147.531 332.917 147.844 332.5 147.844C332.188 147.844 331.823 147.635 331.406 147.219C331.042 146.802 330.677 146.307 330.312 145.734C329.948 145.214 329.583 144.667 329.219 144.094C328.906 143.469 328.672 142.948 328.516 142.531L313.516 108.078C313.203 107.453 312.812 106.854 312.344 106.281C311.927 105.656 311.484 105.344 311.016 105.344C310.495 105.344 310 105.682 309.531 106.359C309.062 107.036 308.672 107.688 308.359 108.312L293.75 141.75V141.672C293.281 142.818 292.786 143.859 292.266 144.797C291.849 145.578 291.354 146.281 290.781 146.906C290.26 147.531 289.792 147.844 289.375 147.844C289.062 147.844 288.724 147.688 288.359 147.375C288.047 147.062 287.708 146.672 287.344 146.203C286.979 145.734 286.641 145.24 286.328 144.719C286.016 144.146 285.755 143.625 285.547 143.156L255.625 81.8281C255.052 80.6823 254.766 79.4062 254.766 78C254.766 76.75 255 75.6042 255.469 74.5625C255.938 73.4688 256.562 72.5312 257.344 71.75C258.177 70.9167 259.115 70.2656 260.156 69.7969C261.25 69.3281 262.422 69.0938 263.672 69.0938C265.443 69.0938 267.031 69.5885 268.438 70.5781C269.896 71.5156 270.99 72.7396 271.719 74.25L287.812 109.328C287.969 109.745 288.151 110.109 288.359 110.422C288.724 111.099 289.062 111.438 289.375 111.438C289.635 111.438 289.948 111.099 290.312 110.422C290.521 110.109 290.703 109.745 290.859 109.328L306.484 72.6875C306.589 72.4792 306.745 72.1667 306.953 71.75C307.214 71.3333 307.526 70.9427 307.891 70.5781C308.307 70.1615 308.75 69.8229 309.219 69.5625C309.74 69.25 310.312 69.0938 310.938 69.0938C311.667 69.0938 312.318 69.3021 312.891 69.7188C313.464 70.0833 313.958 70.5 314.375 70.9688C314.844 71.5417 315.234 72.1667 315.547 72.8438L331.406 109.562C331.51 109.823 331.693 110.214 331.953 110.734C332.266 111.203 332.552 111.438 332.812 111.438C333.125 111.438 333.464 111.099 333.828 110.422C334.036 110.109 334.219 109.745 334.375 109.328L350.156 74.6406C350.781 72.974 351.823 71.6458 353.281 70.6562C354.792 69.6146 356.458 69.0938 358.281 69.0938ZM444.141 135.734C441.641 138.443 438.88 140.76 435.859 142.688C432.943 144.406 429.792 145.708 426.406 146.594C423.073 147.427 419.401 147.844 415.391 147.844C403.984 147.844 394.844 144.172 387.969 136.828C381.094 129.589 377.656 119.849 377.656 107.609C377.656 95.5781 380.99 85.8385 387.656 78.3906C394.323 71.0469 403.255 67.375 414.453 67.375C420.13 67.375 425.156 68.2604 429.531 70.0312C433.906 71.75 437.734 74.4323 441.016 78.0781C447.526 85.1615 450.781 94.9531 450.781 107.453C450.677 108.651 450.182 109.667 449.297 110.5C448.464 111.333 447.448 111.75 446.25 111.75H400.156C399.948 111.75 399.609 111.776 399.141 111.828C398.672 111.88 398.203 112.036 397.734 112.297C397.318 112.505 396.979 112.87 396.719 113.391C396.458 113.859 396.406 114.536 396.562 115.422C397.396 119.953 399.245 123.677 402.109 126.594C405.755 130.24 410.391 132.062 416.016 132.062C420.391 132.062 424.036 131.021 426.953 128.938C427.734 128.365 428.542 127.635 429.375 126.75C430.26 125.812 431.198 124.745 432.188 123.547C432.969 122.453 433.958 121.594 435.156 120.969C436.406 120.344 437.708 120.031 439.062 120.031C440.26 120.031 441.38 120.266 442.422 120.734C443.464 121.151 444.349 121.75 445.078 122.531C445.859 123.312 446.458 124.224 446.875 125.266C447.344 126.307 447.578 127.401 447.578 128.547C447.578 130.578 446.953 132.375 445.703 133.938C445.651 134.042 445.599 134.12 445.547 134.172C445.495 134.172 445.443 134.198 445.391 134.25L444.141 135.734ZM398.438 93.8594C398.333 94.1198 398.255 94.4583 398.203 94.875C398.151 95.2396 398.203 95.6042 398.359 95.9688C398.516 96.3333 398.802 96.6719 399.219 96.9844C399.688 97.2448 400.391 97.375 401.328 97.375H401.562H429.141C429.87 97.3229 430.417 97.1667 430.781 96.9062C431.146 96.5938 431.38 96.2812 431.484 95.9688C431.641 95.6042 431.693 95.2656 431.641 94.9531C431.589 94.5885 431.536 94.276 431.484 94.0156C428.568 86.8281 423.021 83.2344 414.844 83.2344C412.552 83.2344 410.547 83.5729 408.828 84.25C406.953 84.875 405.234 85.8125 403.672 87.0625C402.891 87.6875 402.161 88.3646 401.484 89.0938C400.859 89.7708 400.286 90.5521 399.766 91.4375C399.505 91.8542 399.271 92.2708 399.062 92.6875C398.854 93.0521 398.646 93.4427 398.438 93.8594ZM530.469 145.5C529.271 145.5 528.255 145.135 527.422 144.406C526.589 143.625 526.12 142.635 526.016 141.438V137.531C518.776 144.302 511.042 147.688 502.812 147.688C492.292 147.688 483.62 143.885 476.797 136.281C469.922 128.573 466.484 118.911 466.484 107.297C466.484 95.8906 469.922 86.3854 476.797 78.7812C483.516 71.1771 492.031 67.375 502.344 67.375C511.094 67.375 518.984 71.0208 526.016 78.3125C526.016 77.1146 526.25 75.9948 526.719 74.9531C527.188 73.8594 527.812 72.9219 528.594 72.1406C529.375 71.3073 530.286 70.6562 531.328 70.1875C532.422 69.7188 533.568 69.4844 534.766 69.4844C536.016 69.4844 537.188 69.7188 538.281 70.1875C539.375 70.6562 540.312 71.3073 541.094 72.1406C541.927 72.9219 542.578 73.8594 543.047 74.9531C543.516 75.9948 543.75 77.1146 543.75 78.3125C543.75 78.4167 543.724 78.4948 543.672 78.5469C543.672 78.599 543.672 78.651 543.672 78.7031H543.75L543.672 141.125C543.672 142.323 543.229 143.365 542.344 144.25C541.51 145.083 540.469 145.5 539.219 145.5H530.469ZM521.25 125.266C525.26 120.526 527.266 114.667 527.266 107.688C527.266 100.604 525.26 94.7448 521.25 90.1094C517.24 85.5781 512.005 83.3125 505.547 83.3125C499.609 83.3125 494.609 85.5781 490.547 90.1094C486.484 94.7969 484.453 100.526 484.453 107.297C484.453 114.484 486.432 120.37 490.391 124.953C494.453 129.641 499.479 131.984 505.469 131.984C511.927 131.984 517.188 129.745 521.25 125.266ZM621.797 69.25C623.047 69.25 624.193 69.4844 625.234 69.9531C626.328 70.4219 627.266 71.0469 628.047 71.8281C628.828 72.6094 629.453 73.5469 629.922 74.6406C630.391 75.6823 630.625 76.8281 630.625 78.0781C630.625 79.7448 630.234 81.2031 629.453 82.4531L600.781 141.359L600.703 141.281C600.182 142.427 599.635 143.469 599.062 144.406C598.594 145.188 598.099 145.891 597.578 146.516C597.109 147.141 596.667 147.453 596.25 147.453C595.99 147.453 595.703 147.297 595.391 146.984C595.078 146.672 594.74 146.281 594.375 145.812C594.062 145.344 593.724 144.849 593.359 144.328C593.047 143.755 592.786 143.234 592.578 142.766L563.359 82.2188C562.63 80.9167 562.266 79.5104 562.266 78C562.266 76.8021 562.5 75.6823 562.969 74.6406C563.438 73.5469 564.062 72.6094 564.844 71.8281C565.677 71.0469 566.615 70.4219 567.656 69.9531C568.75 69.4844 569.922 69.25 571.172 69.25C572.943 69.25 574.531 69.7448 575.938 70.7344C577.396 71.6719 578.464 72.9219 579.141 74.4844L579.219 74.5625L595.547 109.797C595.651 110.057 595.781 110.318 595.938 110.578C596.146 110.786 596.328 110.891 596.484 110.891C596.693 110.891 596.953 110.604 597.266 110.031C597.422 109.823 597.578 109.536 597.734 109.172V109.25L613.672 74.5625C614.349 73 615.417 71.724 616.875 70.7344C618.333 69.7448 619.974 69.25 621.797 69.25ZM707.734 135.734C705.234 138.443 702.474 140.76 699.453 142.688C696.536 144.406 693.385 145.708 690 146.594C686.667 147.427 682.995 147.844 678.984 147.844C667.578 147.844 658.438 144.172 651.562 136.828C644.688 129.589 641.25 119.849 641.25 107.609C641.25 95.5781 644.583 85.8385 651.25 78.3906C657.917 71.0469 666.849 67.375 678.047 67.375C683.724 67.375 688.75 68.2604 693.125 70.0312C697.5 71.75 701.328 74.4323 704.609 78.0781C711.12 85.1615 714.375 94.9531 714.375 107.453C714.271 108.651 713.776 109.667 712.891 110.5C712.057 111.333 711.042 111.75 709.844 111.75H663.75C663.542 111.75 663.203 111.776 662.734 111.828C662.266 111.88 661.797 112.036 661.328 112.297C660.911 112.505 660.573 112.87 660.312 113.391C660.052 113.859 660 114.536 660.156 115.422C660.99 119.953 662.839 123.677 665.703 126.594C669.349 130.24 673.984 132.062 679.609 132.062C683.984 132.062 687.63 131.021 690.547 128.938C691.328 128.365 692.135 127.635 692.969 126.75C693.854 125.812 694.792 124.745 695.781 123.547C696.562 122.453 697.552 121.594 698.75 120.969C700 120.344 701.302 120.031 702.656 120.031C703.854 120.031 704.974 120.266 706.016 120.734C707.057 121.151 707.943 121.75 708.672 122.531C709.453 123.312 710.052 124.224 710.469 125.266C710.938 126.307 711.172 127.401 711.172 128.547C711.172 130.578 710.547 132.375 709.297 133.938C709.245 134.042 709.193 134.12 709.141 134.172C709.089 134.172 709.036 134.198 708.984 134.25L707.734 135.734ZM662.031 93.8594C661.927 94.1198 661.849 94.4583 661.797 94.875C661.745 95.2396 661.797 95.6042 661.953 95.9688C662.109 96.3333 662.396 96.6719 662.812 96.9844C663.281 97.2448 663.984 97.375 664.922 97.375H665.156H692.734C693.464 97.3229 694.01 97.1667 694.375 96.9062C694.74 96.5938 694.974 96.2812 695.078 95.9688C695.234 95.6042 695.286 95.2656 695.234 94.9531C695.182 94.5885 695.13 94.276 695.078 94.0156C692.161 86.8281 686.615 83.2344 678.438 83.2344C676.146 83.2344 674.141 83.5729 672.422 84.25C670.547 84.875 668.828 85.8125 667.266 87.0625C666.484 87.6875 665.755 88.3646 665.078 89.0938C664.453 89.7708 663.88 90.5521 663.359 91.4375C663.099 91.8542 662.865 92.2708 662.656 92.6875C662.448 93.0521 662.24 93.4427 662.031 93.8594ZM751.25 136.828C751.25 138.078 751.016 139.25 750.547 140.344C750.078 141.385 749.453 142.297 748.672 143.078C747.891 143.859 746.953 144.484 745.859 144.953C744.818 145.37 743.672 145.578 742.422 145.578C741.224 145.578 740.078 145.344 738.984 144.875C737.943 144.406 737.031 143.781 736.25 143C735.469 142.219 734.844 141.307 734.375 140.266C733.906 139.172 733.672 138 733.672 136.75V136.047V22.375V22.2188C733.672 21.0208 733.906 19.875 734.375 18.7812C734.844 17.6875 735.469 16.75 736.25 15.9688C737.031 15.1354 737.943 14.4844 738.984 14.0156C740.078 13.5469 741.224 13.3125 742.422 13.3125C743.62 13.3125 744.74 13.5469 745.781 14.0156C746.875 14.4844 747.812 15.1354 748.594 15.9688C749.427 16.75 750.078 17.6875 750.547 18.7812C751.016 19.8229 751.25 20.9427 751.25 22.1406V135.812V136.828ZM844.141 78.3906C844.141 79.3281 843.984 80.2396 843.672 81.125C843.411 81.9583 843.047 82.7396 842.578 83.4688L792.188 181.125C791.562 182.792 790.495 184.172 788.984 185.266C787.526 186.411 785.807 186.984 783.828 186.984C782.578 186.984 781.406 186.75 780.312 186.281C779.271 185.812 778.333 185.161 777.5 184.328C776.719 183.547 776.094 182.609 775.625 181.516C775.156 180.474 774.922 179.328 774.922 178.078C774.922 176.047 775.495 174.302 776.641 172.844L797.578 133.547C797.786 133.234 797.969 132.87 798.125 132.453C798.281 132.036 798.359 131.724 798.359 131.516C798.359 131.359 798.281 131.125 798.125 130.812C798.021 130.5 797.917 130.214 797.812 129.953C797.604 129.641 797.422 129.276 797.266 128.859L772.266 83.5469C771.745 82.8177 771.328 82.0365 771.016 81.2031C770.755 80.3177 770.625 79.3802 770.625 78.3906C770.625 77.1406 770.859 75.9948 771.328 74.9531C771.797 73.8594 772.422 72.9219 773.203 72.1406C774.036 71.3073 774.974 70.6562 776.016 70.1875C777.109 69.7188 778.281 69.4844 779.531 69.4844C781.354 69.4844 782.969 69.9792 784.375 70.9688C785.833 71.9583 786.927 73.2344 787.656 74.7969V74.7188L806.484 110.109C806.641 110.37 806.875 110.682 807.188 111.047C807.5 111.411 807.839 111.594 808.203 111.594C808.62 111.594 809.01 111.307 809.375 110.734C809.583 110.526 809.74 110.24 809.844 109.875L827.031 75.2656C827.708 73.599 828.776 72.2448 830.234 71.2031C831.693 70.1094 833.385 69.5625 835.312 69.5625C836.51 69.5625 837.63 69.7969 838.672 70.2656C839.766 70.7344 840.703 71.3854 841.484 72.2188C842.318 73 842.969 73.9375 843.438 75.0312C843.906 76.0729 844.141 77.1927 844.141 78.3906Z" fill="white" style="fill:white;fill-opacity:1;"/>
</svg>
